<mxfile host="app.diagrams.net" modified="2024-02-08T19:38:16.005Z" agent="Mozilla/5.0 (Windows NT 10.0; Win64; x64) AppleWebKit/537.36 (KHTML, like Gecko) Chrome/121.0.0.0 Safari/537.36" etag="2QH8j8xS_TM-GL42Gr9m" version="23.1.2" type="github">
  <diagram name="Seite-1" id="AEmfaHxVfqGOTXHCarbz">
    <mxGraphModel dx="1430" dy="763" grid="1" gridSize="10" guides="1" tooltips="1" connect="1" arrows="1" fold="1" page="1" pageScale="1" pageWidth="827" pageHeight="1169" math="0" shadow="0">
      <root>
        <mxCell id="0" />
        <mxCell id="1" parent="0" />
        <mxCell id="y-dv6MNJ5ECLZwhnVXWt-26" value="Tagesschau Service" style="shape=hexagon;perimeter=hexagonPerimeter2;whiteSpace=wrap;html=1;fixedSize=1;fillColor=#e1d5e7;strokeColor=#9673a6;" vertex="1" parent="1">
          <mxGeometry x="588" y="753" width="90" height="80" as="geometry" />
        </mxCell>
        <mxCell id="y-dv6MNJ5ECLZwhnVXWt-25" value="Tagesschau Service" style="shape=hexagon;perimeter=hexagonPerimeter2;whiteSpace=wrap;html=1;fixedSize=1;fillColor=#e1d5e7;strokeColor=#9673a6;" vertex="1" parent="1">
          <mxGeometry x="378" y="753" width="90" height="80" as="geometry" />
        </mxCell>
        <mxCell id="y-dv6MNJ5ECLZwhnVXWt-23" value="Tagesschau Service" style="shape=hexagon;perimeter=hexagonPerimeter2;whiteSpace=wrap;html=1;fixedSize=1;fillColor=#e1d5e7;strokeColor=#9673a6;" vertex="1" parent="1">
          <mxGeometry x="168" y="753" width="90" height="80" as="geometry" />
        </mxCell>
        <mxCell id="y-dv6MNJ5ECLZwhnVXWt-1" value="Storage-Layer" style="shape=umlFrame;whiteSpace=wrap;html=1;pointerEvents=0;fillColor=#00998A;fontStyle=1;fontColor=#FFFFFF;fontSize=10;" vertex="1" parent="1">
          <mxGeometry x="60" y="690" width="720" height="200" as="geometry" />
        </mxCell>
        <mxCell id="y-dv6MNJ5ECLZwhnVXWt-2" value="External Sources" style="shape=umlFrame;whiteSpace=wrap;html=1;pointerEvents=0;fillColor=#00998A;fontStyle=1;fontColor=#FFFFFF;fontSize=10;" vertex="1" parent="1">
          <mxGeometry x="60" y="910" width="720" height="200" as="geometry" />
        </mxCell>
        <mxCell id="y-dv6MNJ5ECLZwhnVXWt-5" value="Tagesschau" style="verticalAlign=top;align=center;spacingTop=8;spacingLeft=2;spacingRight=12;shape=cube;size=10;direction=south;fontStyle=1;html=1;whiteSpace=wrap;fontSize=16;fillColor=#d5e8d4;strokeColor=#82b366;" vertex="1" parent="1">
          <mxGeometry x="120" y="950" width="180" height="120" as="geometry" />
        </mxCell>
        <mxCell id="y-dv6MNJ5ECLZwhnVXWt-6" value="dpa" style="verticalAlign=top;align=center;spacingTop=8;spacingLeft=2;spacingRight=12;shape=cube;size=10;direction=south;fontStyle=1;html=1;whiteSpace=wrap;fontSize=16;fillColor=#d5e8d4;strokeColor=#82b366;" vertex="1" parent="1">
          <mxGeometry x="330" y="950" width="180" height="120" as="geometry" />
        </mxCell>
        <mxCell id="y-dv6MNJ5ECLZwhnVXWt-7" value="..." style="verticalAlign=top;align=center;spacingTop=8;spacingLeft=2;spacingRight=12;shape=cube;size=10;direction=south;fontStyle=1;html=1;whiteSpace=wrap;fontSize=16;fillColor=#d5e8d4;strokeColor=#82b366;" vertex="1" parent="1">
          <mxGeometry x="540" y="950" width="180" height="120" as="geometry" />
        </mxCell>
        <mxCell id="y-dv6MNJ5ECLZwhnVXWt-8" value="Tagesschau Service" style="shape=hexagon;perimeter=hexagonPerimeter2;whiteSpace=wrap;html=1;fixedSize=1;fillColor=#e1d5e7;strokeColor=#9673a6;fontStyle=1" vertex="1" parent="1">
          <mxGeometry x="165" y="750" width="90" height="80" as="geometry" />
        </mxCell>
        <mxCell id="y-dv6MNJ5ECLZwhnVXWt-9" value="dpa&lt;br&gt;Service" style="shape=hexagon;perimeter=hexagonPerimeter2;whiteSpace=wrap;html=1;fixedSize=1;fillColor=#e1d5e7;strokeColor=#9673a6;fontStyle=1" vertex="1" parent="1">
          <mxGeometry x="375" y="750" width="90" height="80" as="geometry" />
        </mxCell>
        <mxCell id="y-dv6MNJ5ECLZwhnVXWt-10" value="[...] Service" style="shape=hexagon;perimeter=hexagonPerimeter2;whiteSpace=wrap;html=1;fixedSize=1;fillColor=#e1d5e7;strokeColor=#9673a6;fontStyle=1" vertex="1" parent="1">
          <mxGeometry x="585" y="750" width="90" height="80" as="geometry" />
        </mxCell>
        <mxCell id="y-dv6MNJ5ECLZwhnVXWt-11" value="MongoDB" style="shape=cylinder3;whiteSpace=wrap;html=1;boundedLbl=1;backgroundOutline=1;size=15;fillColor=#fff2cc;strokeColor=#d6b656;fontStyle=1;fontSize=10;" vertex="1" parent="1">
          <mxGeometry x="80" y="765" width="70" height="50" as="geometry" />
        </mxCell>
        <mxCell id="y-dv6MNJ5ECLZwhnVXWt-12" value="MongoDB" style="shape=cylinder3;whiteSpace=wrap;html=1;boundedLbl=1;backgroundOutline=1;size=15;fillColor=#fff2cc;strokeColor=#d6b656;fontStyle=1;fontSize=10;" vertex="1" parent="1">
          <mxGeometry x="290" y="765" width="70" height="50" as="geometry" />
        </mxCell>
        <mxCell id="y-dv6MNJ5ECLZwhnVXWt-13" value="MongoDB" style="shape=cylinder3;whiteSpace=wrap;html=1;boundedLbl=1;backgroundOutline=1;size=15;fillColor=#fff2cc;strokeColor=#d6b656;fontStyle=1;fontSize=10;" vertex="1" parent="1">
          <mxGeometry x="500" y="765" width="70" height="50" as="geometry" />
        </mxCell>
        <mxCell id="y-dv6MNJ5ECLZwhnVXWt-15" value="" style="endArrow=none;html=1;rounded=0;exitX=1;exitY=0.5;exitDx=0;exitDy=0;exitPerimeter=0;entryX=0;entryY=0.5;entryDx=0;entryDy=0;" edge="1" parent="1" source="y-dv6MNJ5ECLZwhnVXWt-11" target="y-dv6MNJ5ECLZwhnVXWt-8">
          <mxGeometry width="50" height="50" relative="1" as="geometry">
            <mxPoint x="200" y="780" as="sourcePoint" />
            <mxPoint x="250" y="730" as="targetPoint" />
          </mxGeometry>
        </mxCell>
        <mxCell id="y-dv6MNJ5ECLZwhnVXWt-16" value="" style="endArrow=none;html=1;rounded=0;exitX=1;exitY=0.5;exitDx=0;exitDy=0;exitPerimeter=0;entryX=0;entryY=0.5;entryDx=0;entryDy=0;" edge="1" parent="1">
          <mxGeometry width="50" height="50" relative="1" as="geometry">
            <mxPoint x="360" y="789.86" as="sourcePoint" />
            <mxPoint x="375" y="789.86" as="targetPoint" />
          </mxGeometry>
        </mxCell>
        <mxCell id="y-dv6MNJ5ECLZwhnVXWt-17" value="" style="endArrow=none;html=1;rounded=0;exitX=1;exitY=0.5;exitDx=0;exitDy=0;exitPerimeter=0;entryX=0;entryY=0.5;entryDx=0;entryDy=0;" edge="1" parent="1">
          <mxGeometry width="50" height="50" relative="1" as="geometry">
            <mxPoint x="570" y="789.86" as="sourcePoint" />
            <mxPoint x="585" y="789.86" as="targetPoint" />
          </mxGeometry>
        </mxCell>
        <mxCell id="y-dv6MNJ5ECLZwhnVXWt-20" style="edgeStyle=orthogonalEdgeStyle;rounded=0;orthogonalLoop=1;jettySize=auto;html=1;jumpStyle=arc;jumpSize=7;" edge="1" parent="1" source="y-dv6MNJ5ECLZwhnVXWt-10" target="y-dv6MNJ5ECLZwhnVXWt-7">
          <mxGeometry relative="1" as="geometry" />
        </mxCell>
        <mxCell id="y-dv6MNJ5ECLZwhnVXWt-18" style="edgeStyle=orthogonalEdgeStyle;rounded=0;orthogonalLoop=1;jettySize=auto;html=1;entryX=-0.003;entryY=0.502;entryDx=0;entryDy=0;entryPerimeter=0;jumpStyle=arc;jumpSize=7;" edge="1" parent="1" source="y-dv6MNJ5ECLZwhnVXWt-8" target="y-dv6MNJ5ECLZwhnVXWt-5">
          <mxGeometry relative="1" as="geometry" />
        </mxCell>
        <mxCell id="y-dv6MNJ5ECLZwhnVXWt-19" style="edgeStyle=orthogonalEdgeStyle;rounded=0;orthogonalLoop=1;jettySize=auto;html=1;entryX=0.01;entryY=0.498;entryDx=0;entryDy=0;entryPerimeter=0;jumpStyle=arc;jumpSize=7;" edge="1" parent="1" source="y-dv6MNJ5ECLZwhnVXWt-9" target="y-dv6MNJ5ECLZwhnVXWt-6">
          <mxGeometry relative="1" as="geometry" />
        </mxCell>
        <mxCell id="y-dv6MNJ5ECLZwhnVXWt-22" value="Processing-Layer" style="shape=umlFrame;whiteSpace=wrap;html=1;pointerEvents=0;fontSize=10;fillColor=#00998A;fontStyle=1;fontColor=#FFFFFF;" vertex="1" parent="1">
          <mxGeometry x="190" y="470" width="450" height="200" as="geometry" />
        </mxCell>
        <mxCell id="y-dv6MNJ5ECLZwhnVXWt-27" value="Tagesschau Service" style="shape=hexagon;perimeter=hexagonPerimeter2;whiteSpace=wrap;html=1;fixedSize=1;fillColor=#e1d5e7;strokeColor=#9673a6;" vertex="1" parent="1">
          <mxGeometry x="378.5" y="531.5" width="90" height="80" as="geometry" />
        </mxCell>
        <mxCell id="y-dv6MNJ5ECLZwhnVXWt-29" style="edgeStyle=orthogonalEdgeStyle;rounded=0;orthogonalLoop=1;jettySize=auto;html=1;entryX=0.5;entryY=0;entryDx=0;entryDy=0;" edge="1" parent="1" source="y-dv6MNJ5ECLZwhnVXWt-28" target="y-dv6MNJ5ECLZwhnVXWt-8">
          <mxGeometry relative="1" as="geometry">
            <Array as="points">
              <mxPoint x="421" y="640" />
              <mxPoint x="210" y="640" />
            </Array>
          </mxGeometry>
        </mxCell>
        <mxCell id="y-dv6MNJ5ECLZwhnVXWt-30" style="edgeStyle=orthogonalEdgeStyle;rounded=0;orthogonalLoop=1;jettySize=auto;html=1;entryX=0.375;entryY=0;entryDx=0;entryDy=0;" edge="1" parent="1" source="y-dv6MNJ5ECLZwhnVXWt-28" target="y-dv6MNJ5ECLZwhnVXWt-10">
          <mxGeometry relative="1" as="geometry">
            <Array as="points">
              <mxPoint x="421" y="640" />
              <mxPoint x="619" y="640" />
            </Array>
          </mxGeometry>
        </mxCell>
        <mxCell id="y-dv6MNJ5ECLZwhnVXWt-31" style="edgeStyle=orthogonalEdgeStyle;rounded=0;orthogonalLoop=1;jettySize=auto;html=1;" edge="1" parent="1" source="y-dv6MNJ5ECLZwhnVXWt-28" target="y-dv6MNJ5ECLZwhnVXWt-9">
          <mxGeometry relative="1" as="geometry" />
        </mxCell>
        <mxCell id="y-dv6MNJ5ECLZwhnVXWt-36" style="edgeStyle=orthogonalEdgeStyle;rounded=0;orthogonalLoop=1;jettySize=auto;html=1;jumpStyle=arc;startArrow=classic;startFill=1;" edge="1" parent="1" source="y-dv6MNJ5ECLZwhnVXWt-28" target="y-dv6MNJ5ECLZwhnVXWt-33">
          <mxGeometry relative="1" as="geometry" />
        </mxCell>
        <mxCell id="y-dv6MNJ5ECLZwhnVXWt-28" value="Processing Service" style="shape=hexagon;perimeter=hexagonPerimeter2;whiteSpace=wrap;html=1;fixedSize=1;fillColor=#e1d5e7;strokeColor=#9673a6;fontStyle=1" vertex="1" parent="1">
          <mxGeometry x="375.5" y="528.5" width="90" height="80" as="geometry" />
        </mxCell>
        <mxCell id="y-dv6MNJ5ECLZwhnVXWt-32" value="Analytics-Layer" style="shape=umlFrame;whiteSpace=wrap;html=1;pointerEvents=0;fontSize=10;fillColor=#00998A;fontStyle=1;fontColor=#FFFFFF;" vertex="1" parent="1">
          <mxGeometry x="190" y="250" width="450" height="200" as="geometry" />
        </mxCell>
        <mxCell id="y-dv6MNJ5ECLZwhnVXWt-33" value="" style="ellipse;shape=cloud;whiteSpace=wrap;html=1;fillColor=#dae8fc;strokeColor=#6c8ebf;" vertex="1" parent="1">
          <mxGeometry x="658" y="523.5" width="147" height="90" as="geometry" />
        </mxCell>
        <mxCell id="y-dv6MNJ5ECLZwhnVXWt-34" value="Cloud Storage" style="shape=cylinder3;whiteSpace=wrap;html=1;boundedLbl=1;backgroundOutline=1;size=15;fontSize=8;fillColor=#fff2cc;strokeColor=#d6b656;fontStyle=1" vertex="1" parent="1">
          <mxGeometry x="713.5" y="547" width="48.5" height="55" as="geometry" />
        </mxCell>
        <mxCell id="y-dv6MNJ5ECLZwhnVXWt-37" value="Tagesschau Service" style="shape=hexagon;perimeter=hexagonPerimeter2;whiteSpace=wrap;html=1;fixedSize=1;fillColor=#e1d5e7;strokeColor=#9673a6;" vertex="1" parent="1">
          <mxGeometry x="377.5" y="311.5" width="90" height="80" as="geometry" />
        </mxCell>
        <mxCell id="y-dv6MNJ5ECLZwhnVXWt-39" style="edgeStyle=orthogonalEdgeStyle;rounded=0;orthogonalLoop=1;jettySize=auto;html=1;" edge="1" parent="1" source="y-dv6MNJ5ECLZwhnVXWt-38" target="y-dv6MNJ5ECLZwhnVXWt-28">
          <mxGeometry relative="1" as="geometry" />
        </mxCell>
        <mxCell id="y-dv6MNJ5ECLZwhnVXWt-38" value="Analytics Service" style="shape=hexagon;perimeter=hexagonPerimeter2;whiteSpace=wrap;html=1;fixedSize=1;fillColor=#e1d5e7;strokeColor=#9673a6;fontStyle=1" vertex="1" parent="1">
          <mxGeometry x="374.5" y="308.5" width="90" height="80" as="geometry" />
        </mxCell>
      </root>
    </mxGraphModel>
  </diagram>
</mxfile>
